<svg class="icon" viewBox="0 0 1024 1024" version="1.1" xmlns="http://www.w3.org/2000/svg" width="200" height="200"><path d="M168.277333 715.776c0-8.874667 3.072-16.042667 9.557334-21.162667 4.778667-5.461333 11.946667-7.850667 21.504-7.850666h626.005333c8.533333 0 15.701333 2.730667 21.845333 8.192 6.144 5.461333 8.874667 12.629333 8.874667 20.821333s-3.072 15.36-9.216 21.162667-13.312 9.216-21.504 9.216H199.338667a29.696 29.696 0 0 1-21.845334-9.216 28.194133 28.194133 0 0 1-9.216-21.162667z m67.242667-282.965333c0-8.874667 2.730667-16.042667 7.850667-21.504 5.802667-6.144 12.970667-8.874667 22.186666-8.874667 7.850667 0 14.677333 3.072 20.48 8.874667l51.2 51.2a29.2864 29.2864 0 0 1 0 42.666666c-5.12 6.144-11.946667 9.216-20.48 9.216s-16.042667-3.072-21.845333-9.216l-51.2-51.2c-5.461333-5.12-8.192-11.946667-8.192-21.162666z m100.010667 190.805333c-1.365333 5.461333 0.341333 7.850667 5.12 7.850667h50.858666c2.389333 0 4.778667-2.048 7.509334-5.802667 10.24-21.845333 25.258667-38.912 45.397333-51.882667s42.325333-19.114667 66.901333-19.114666c24.917333 0 47.445333 6.485333 67.925334 19.114666s35.84 30.037333 46.08 51.882667c2.730667 3.754667 5.461333 5.802667 7.850666 5.802667h50.517334c4.437333 0 6.144-2.730667 5.12-7.850667a178.346667 178.346667 0 0 0-66.56-94.208c-32.768-24.234667-69.632-36.181333-110.933334-36.181333-40.96 0-77.824 11.946667-110.250666 36.181333-31.744 24.234667-53.930667 55.637333-65.536 94.208z m147.114666-220.501333V330.410667c0-8.533333 2.730667-15.701333 8.192-21.845334 5.461333-6.144 12.629333-8.874667 20.821334-8.874666a29.832533 29.832533 0 0 1 30.037333 30.72v73.045333a29.0816 29.0816 0 0 1-30.037333 30.378667c-8.192 0-15.36-3.072-20.821334-8.874667s-8.192-13.312-8.192-21.845333z m195.242667 80.896c0-8.192 2.730667-15.36 8.533333-21.504l52.565334-51.2c5.461333-6.144 12.288-8.874667 21.162666-8.874667 8.192 0 15.018667 2.730667 20.48 8.533333s7.850667 12.970667 7.850667 21.845334-2.730667 16.042667-7.850667 21.162666l-50.517333 51.2c-5.802667 5.802667-12.288 8.874667-19.114667 9.557334-7.850667 0.682667-15.018667-2.048-22.186666-8.192s-10.922667-13.994667-10.922667-22.528z" fill="#ea986c"></path></svg>