<svg xmlns="http://www.w3.org/2000/svg" width="22.664" height="18.601" viewBox="0 0 22.664 18.601">
  <path id="路径_4951" data-name="路径 4951" d="M19.187,1.954A17.734,17.734,0,0,0,14.573.413.068.068,0,0,0,14.5.451c-.2.382-.42.879-.574,1.27a16.04,16.04,0,0,0-5.182,0A13.285,13.285,0,0,0,8.16.451.071.071,0,0,0,8.086.413,17.685,17.685,0,0,0,3.472,1.954a.068.068,0,0,0-.03.028A21.816,21.816,0,0,0,.094,15.872a.086.086,0,0,0,.029.057,18.312,18.312,0,0,0,5.659,3.08.07.07,0,0,0,.08-.028A14.7,14.7,0,0,0,7.02,16.953a.079.079,0,0,0-.039-.107,12.009,12.009,0,0,1-1.768-.907.082.082,0,0,1-.007-.13c.119-.1.238-.2.351-.3A.066.066,0,0,1,5.63,15.5a12.543,12.543,0,0,0,11.39,0,.066.066,0,0,1,.074.01c.113.1.232.2.352.3a.082.082,0,0,1-.006.13,11.268,11.268,0,0,1-1.769.906.08.08,0,0,0-.038.108A16.5,16.5,0,0,0,16.79,18.98a.069.069,0,0,0,.08.029,18.249,18.249,0,0,0,5.668-3.08.08.08,0,0,0,.029-.056A21.825,21.825,0,0,0,20.46,4.2a22.357,22.357,0,0,0-1.244-2.22A.059.059,0,0,0,19.187,1.954ZM7.574,13.1a2.286,2.286,0,0,1-2.037-2.46A2.273,2.273,0,0,1,7.574,8.18a2.261,2.261,0,0,1,2.037,2.46A2.273,2.273,0,0,1,7.574,13.1Zm7.531,0a2.286,2.286,0,0,1-2.037-2.46A2.273,2.273,0,0,1,15.1,8.18a2.261,2.261,0,0,1,2.037,2.46A2.267,2.267,0,0,1,15.1,13.1Z" transform="translate(0 -0.412)" fill="#fff"/>
</svg>
