<?xml version="1.0" encoding="utf-8"?>
<!-- Generator: Adobe Illustrator 24.2.0, SVG Export Plug-In . SVG Version: 6.00 Build 0)  -->
<svg version="1.1" id="图层_1" xmlns="http://www.w3.org/2000/svg" xmlns:xlink="http://www.w3.org/1999/xlink" x="0px" y="0px"
	 viewBox="0 0 482.3 482.3" style="enable-background:new 0 0 482.3 482.3;" xml:space="preserve">
<style type="text/css">
	.st0{fill:none;stroke:#FFFFFF;stroke-width:10;stroke-miterlimit:10;}
	.st1{fill:#FFFFFF;}
</style>
<g>
	<circle class="st0" cx="241.2" cy="241.2" r="236.2"/>
	<path class="st1" d="M292.9,289c-0.8,3-8.8,5.3-13.3,7.3c-1.2,0.5-1.7,2-1.1,3.1c0,0,0,0,0,0.1c2,4.3,4.4,8.4,7.3,12.1
		c1.2,1.5,3.2,2.1,5.1,1.5c12.9-4.2,25.2-10.1,36.6-17.4c5.5-3.6,9-9.6,9.3-16.1c1.9-37-9.2-70.1-28.9-99.2l0,0
		c-11.2-5.3-23.1-9.2-35.3-11.6c-2.8-0.5-5.5,0.9-6.7,3.5c-0.3,0.7-0.6,1.5-1.1,2.1c-1.1,2.3-3.5,3.6-6,3.3
		c-11.8-1.4-23.6-1.4-35.4,0c-4.1,0.7-5.6-2.7-7.1-5.8c-1.2-2.4-3.9-3.7-6.5-3.2c-12.1,2.4-23.9,6.2-35.1,11.4
		c-22.8,33.5-30.5,66.8-29.2,99.3c0.3,6.4,3.6,12.3,8.9,15.9c11.4,7.6,24.2,14,37.1,17.6c2,0.6,4.1-0.3,5.3-2
		c10.9-16.8,11.4-10.9-7.3-21c-0.3-0.2-0.4-0.6-0.2-0.9c0-0.1,0.1-0.1,0.1-0.1 M193,287.4c31.4,14.3,65.3,14.3,96.3,0 M209.4,267.8
		c-9.4,0-17.2-8.7-17.2-19.3c0-10.6,7.6-19.3,17.2-19.3s17.4,8.7,17.2,19.3C226.6,259.1,219,267.8,209.4,267.8L209.4,267.8z
		 M273.1,267.8c-9.4,0-17.2-8.7-17.2-19.3c0-10.6,7.6-19.3,17.2-19.3s17.4,8.7,17.2,19.3C290.1,259,282.7,267.8,273.1,267.8
		L273.1,267.8z"/>
</g>
</svg>
