<svg xmlns="http://www.w3.org/2000/svg" width="21.435" height="15.004" viewBox="0 0 21.435 15.004">
  <path id="Icon_awesome-users" data-name="Icon awesome-users" d="M3.215,8.68A2.143,2.143,0,1,0,1.072,6.537,2.145,2.145,0,0,0,3.215,8.68Zm15,0a2.143,2.143,0,1,0-2.143-2.143A2.145,2.145,0,0,0,18.219,8.68Zm1.072,1.072H17.148a2.137,2.137,0,0,0-1.51.623,4.9,4.9,0,0,1,2.515,3.664h2.21a1.071,1.071,0,0,0,1.072-1.072V11.9A2.145,2.145,0,0,0,19.291,9.752Zm-8.574,0A3.751,3.751,0,1,0,6.966,6,3.749,3.749,0,0,0,10.717,9.752Zm2.572,1.072h-.278a5.179,5.179,0,0,1-4.588,0H8.145a3.859,3.859,0,0,0-3.858,3.858v.965a1.608,1.608,0,0,0,1.608,1.608H15.54a1.608,1.608,0,0,0,1.608-1.608v-.965A3.859,3.859,0,0,0,13.289,10.824ZM5.8,10.375a2.137,2.137,0,0,0-1.51-.623H2.143A2.145,2.145,0,0,0,0,11.9v1.072a1.071,1.071,0,0,0,1.072,1.072H3.279A4.911,4.911,0,0,1,5.8,10.375Z" transform="translate(0 -2.25)" fill="#001323"/>
</svg>
