<?xml version="1.0" encoding="utf-8"?>
<!-- Generator: Adobe Illustrator 24.2.0, SVG Export Plug-In . SVG Version: 6.00 Build 0)  -->
<svg version="1.1" id="图层_1" xmlns="http://www.w3.org/2000/svg" xmlns:xlink="http://www.w3.org/1999/xlink" x="0px" y="0px"
	 viewBox="0 0 482.3 482.3" style="enable-background:new 0 0 482.3 482.3;" xml:space="preserve">
<style type="text/css">
	.st0{fill:#FFFFFF;}
	.st1{fill:none;stroke:#FFFFFF;stroke-width:10;stroke-miterlimit:10;}
</style>
<g>
	<path class="st0" d="M332.9,187.5c-5.9,2.3-12,4.1-18.2,5.3c-1.2,0.2-1-0.4,0-1.1c5.4-4.2,10.9-11.3,13.1-17.8c0-0.1,0-0.2-0.1-0.2
		c0,0-0.1,0-0.1,0c-6.9,3.9-14.3,6.7-22.1,8.2c-0.4,0.1-0.8-0.1-1.1-0.4c-6.9-6.9-16.3-10.8-26.1-10.7c-22.6-0.2-40,20.4-35.7,42.1
		c0.1,0.6-0.3,1.2-1,1.3c-0.1,0-0.2,0-0.3,0c-27.9-1.7-53.9-14.5-72.3-35.6c-0.5-0.5-1.2-0.6-1.8-0.1c-0.1,0.1-0.2,0.2-0.2,0.3
		c-7.9,14.1-3.7,33.6,8.8,43.4c0.5,0.4,0.5,1.2,0.1,1.6c-0.3,0.3-0.7,0.4-1.1,0.4c-3.9-0.6-7.7-1.7-11.3-3.3c-0.7-0.3-1.6,0-1.9,0.8
		c-0.1,0.2-0.1,0.4-0.1,0.6c0.9,14.6,11.9,27,25.5,31.6c0.6,0.2,1,0.8,0.8,1.4c-0.1,0.5-0.5,0.8-1,0.8c-3.1,0.4-9.7-0.8-12.8-1.2
		c-0.6-0.1-1.2,0.4-1.3,1c0,0.2,0,0.4,0.1,0.6c4.8,12.2,19.7,22.2,33.5,23.7c0.6,0,1.1,0.6,1.1,1.2c0,0.3-0.2,0.7-0.5,0.9
		c-13.6,9.4-29.9,14-46.3,13.2c-0.6-0.1-1.2,0.4-1.3,1c0,0.5,0.2,0.9,0.6,1.1c77.1,41.5,158.5-18.1,154.9-91.4c0-0.4,0.2-0.8,0.5-1
		C322.1,200.5,328,194.4,332.9,187.5z"/>
	<circle class="st1" cx="241.2" cy="241.2" r="236.2"/>
</g>
</svg>
