<svg xmlns="http://www.w3.org/2000/svg" width="22.664" height="18.407" viewBox="0 0 22.664 18.407">
  <path id="Icon_awesome-twitter" data-name="Icon awesome-twitter" d="M20.334,7.968c.014.2.014.4.014.6A13.819,13.819,0,0,1,15.484,18.9a12.656,12.656,0,0,1-8.351,2.891A13.126,13.126,0,0,1,0,19.7a9.609,9.609,0,0,0,1.122.058,9.3,9.3,0,0,0,5.767-1.985,4.653,4.653,0,0,1-4.343-3.221,5.858,5.858,0,0,0,.877.072,4.913,4.913,0,0,0,1.222-.158A4.646,4.646,0,0,1,.92,9.91V9.852a4.678,4.678,0,0,0,2.1.59A4.652,4.652,0,0,1,1.582,4.229,13.2,13.2,0,0,0,11.159,9.09a5.244,5.244,0,0,1-.115-1.064,4.649,4.649,0,0,1,8.039-3.178,9.145,9.145,0,0,0,2.948-1.122,4.632,4.632,0,0,1-2.042,2.56,9.312,9.312,0,0,0,2.675-.719,9.985,9.985,0,0,1-2.33,2.4Z" transform="translate(0 -3.381)" fill="#d6d6d6"/>
</svg>
